<svg xmlns="http://www.w3.org/2000/svg" xmlns:xlink="http://www.w3.org/1999/xlink" viewBox="0 0 460.99 108.97"><defs><style>.cls-1{isolation:isolate;}.cls-2{fill:#0079b2;}.cls-2,.cls-3,.cls-4,.cls-5{mix-blend-mode:multiply;}.cls-3{fill:url(#linear-gradient);}.cls-4,.cls-5{opacity:0.4;}.cls-4{fill:url(#linear-gradient-2);}.cls-5{fill:url(#linear-gradient-3);}.cls-6{fill:#fff;}.cls-7{fill:#404041;}</style><linearGradient id="linear-gradient" x1="65.54" y1="15.96" x2="142.59" y2="93.01" gradientUnits="userSpaceOnUse"><stop offset="0" stop-color="#fcb833"/><stop offset="1" stop-color="#ec1c29"/></linearGradient><linearGradient id="linear-gradient-2" x1="81.73" y1="7.29" x2="27.24" y2="101.68" gradientUnits="userSpaceOnUse"><stop offset="0.45" stop-color="#fff"/><stop offset="0.5" stop-color="#f3f2f2"/><stop offset="0.6" stop-color="#d2d1d1"/><stop offset="0.73" stop-color="#9c9b9b"/><stop offset="0.89" stop-color="#545151"/><stop offset="0.98" stop-color="#231f20"/></linearGradient><linearGradient id="linear-gradient-3" x1="131.31" y1="7.29" x2="76.82" y2="101.68" xlink:href="#linear-gradient-2"/></defs><title>logo_accha_v4</title><g class="cls-1"><g id="Layer_1" data-name="Layer 1"><circle class="cls-2" cx="54.49" cy="54.49" r="54.49"/><circle class="cls-3" cx="104.07" cy="54.49" r="54.49"/><circle class="cls-4" cx="54.49" cy="54.49" r="54.49"/><circle class="cls-5" cx="104.07" cy="54.49" r="54.49"/><path class="cls-6" d="M104.07,29.69a24.68,24.68,0,0,0-10.25,2.22,33.25,33.25,0,0,1-29.09,0,24.8,24.8,0,1,0,0,45.13h0a33.35,33.35,0,0,1,29,0h0a24.79,24.79,0,1,0,10.29-47.35Z"/><path class="cls-7" d="M208.73,28.7a25.79,25.79,0,1,0,17,45.14v1.91a4.41,4.41,0,0,0,8.81,0V54.48A25.82,25.82,0,0,0,208.73,28.7Zm0,42.76a17,17,0,1,1,17-17A17,17,0,0,1,208.73,71.46Z"/><path class="cls-7" d="M270.9,37.51a16.86,16.86,0,0,1,12,5,4.4,4.4,0,0,0,6.22-6.23,25.77,25.77,0,1,0,0,36.46,4.4,4.4,0,0,0-6.22-6.22,17,17,0,1,1-12-29Z"/><path class="cls-7" d="M335.6,42.48a4.41,4.41,0,1,0,6.23-6.23,25.77,25.77,0,1,0,0,36.46,4.4,4.4,0,1,0-6.23-6.22,17,17,0,1,1,0-24Z"/><path class="cls-7" d="M435.21,28.7a25.79,25.79,0,1,0,17,45.14v1.91a4.4,4.4,0,0,0,8.8,0V54.48A25.81,25.81,0,0,0,435.21,28.7Zm0,42.76a17,17,0,1,1,17-17A17,17,0,0,1,435.21,71.46Z"/><path class="cls-7" d="M377.47,28.86a22.07,22.07,0,0,0-13.41,4.55V11.88a4.41,4.41,0,1,0-8.81,0V75.75a4.41,4.41,0,0,0,8.81,0V51.08a13.41,13.41,0,1,1,26.82,0V75.75a4.4,4.4,0,0,0,8.8,0V49.31a4.52,4.52,0,0,0-.25-1.43A22.23,22.23,0,0,0,377.47,28.86Z"/></g></g></svg>